<svg width="220" height="51" viewBox="0 0 220 51" fill="none" xmlns="http://www.w3.org/2000/svg">
<g clip-path="url(#clip0_26_213)">
<rect width="220" height="51" fill="white"/>
<rect x="133" y="25" width="87" height="26" rx="4" fill="#112E51"/>
<path d="M138.215 43V32.155H142.205C142.995 32.155 143.703 32.2925 144.328 32.5675C144.953 32.8375 145.445 33.2375 145.805 33.7675C146.17 34.2975 146.353 34.945 146.353 35.71C146.353 36.43 146.193 37.045 145.873 37.555C145.553 38.065 145.103 38.455 144.523 38.725C143.948 38.995 143.27 39.13 142.49 39.13H140.42V43H138.215ZM140.398 37.435H142.43C142.98 37.435 143.43 37.26 143.78 36.91C144.13 36.555 144.305 36.1175 144.305 35.5975C144.305 35.0575 144.12 34.63 143.75 34.315C143.38 33.995 142.93 33.835 142.4 33.835H140.398V37.435ZM147.723 43V35.245H149.83V37.0825C149.955 36.6875 150.13 36.3425 150.355 36.0475C150.585 35.7475 150.863 35.515 151.188 35.35C151.513 35.18 151.88 35.095 152.29 35.095C152.36 35.095 152.425 35.1 152.485 35.11C152.55 35.115 152.598 35.125 152.628 35.14V37.225C152.583 37.205 152.528 37.1925 152.463 37.1875C152.403 37.1825 152.348 37.1775 152.298 37.1725C151.868 37.1375 151.5 37.15 151.195 37.21C150.89 37.27 150.643 37.3725 150.453 37.5175C150.263 37.6625 150.125 37.84 150.04 38.05C149.955 38.26 149.913 38.495 149.913 38.755V43H147.723ZM157.272 43.15C156.512 43.15 155.85 42.9875 155.285 42.6625C154.725 42.3375 154.29 41.8775 153.98 41.2825C153.675 40.6875 153.522 39.9825 153.522 39.1675C153.522 38.3525 153.675 37.64 153.98 37.03C154.29 36.42 154.725 35.945 155.285 35.605C155.85 35.265 156.515 35.095 157.28 35.095C158.045 35.095 158.707 35.2625 159.267 35.5975C159.827 35.9275 160.26 36.3975 160.565 37.0075C160.87 37.6175 161.022 38.3375 161.022 39.1675C161.022 39.9475 160.872 40.6375 160.572 41.2375C160.277 41.8325 159.85 42.3 159.29 42.64C158.735 42.98 158.062 43.15 157.272 43.15ZM157.28 41.5225C157.665 41.5225 157.975 41.41 158.21 41.185C158.445 40.96 158.615 40.665 158.72 40.3C158.825 39.93 158.877 39.5275 158.877 39.0925C158.877 38.6825 158.83 38.295 158.735 37.93C158.64 37.565 158.475 37.27 158.24 37.045C158.005 36.82 157.685 36.7075 157.28 36.7075C156.895 36.7075 156.582 36.815 156.342 37.03C156.107 37.24 155.935 37.5275 155.825 37.8925C155.715 38.2525 155.66 38.6525 155.66 39.0925C155.66 39.4975 155.71 39.8875 155.81 40.2625C155.91 40.6325 156.077 40.935 156.312 41.17C156.547 41.405 156.87 41.5225 157.28 41.5225ZM165.45 43.15C164.41 43.15 163.6 42.7925 163.02 42.0775C162.44 41.3575 162.15 40.3575 162.15 39.0775C162.15 38.2675 162.268 37.565 162.503 36.97C162.738 36.375 163.085 35.915 163.545 35.59C164.005 35.26 164.568 35.095 165.233 35.095C165.513 35.095 165.773 35.1275 166.013 35.1925C166.258 35.2525 166.48 35.3375 166.68 35.4475C166.88 35.5575 167.055 35.685 167.205 35.83C167.355 35.975 167.478 36.13 167.573 36.295V31.855H169.77V43H168.18L167.933 41.41C167.858 41.625 167.758 41.835 167.633 42.04C167.513 42.245 167.355 42.4325 167.16 42.6025C166.965 42.7675 166.725 42.9 166.44 43C166.16 43.1 165.83 43.15 165.45 43.15ZM165.93 41.575C166.48 41.575 166.89 41.3825 167.16 40.9975C167.435 40.6125 167.573 39.9625 167.573 39.0475C167.568 38.5175 167.505 38.0775 167.385 37.7275C167.265 37.3775 167.085 37.1175 166.845 36.9475C166.61 36.7725 166.31 36.685 165.945 36.685C165.47 36.685 165.075 36.8675 164.76 37.2325C164.445 37.5925 164.288 38.1975 164.288 39.0475C164.288 39.9125 164.435 40.55 164.73 40.96C165.025 41.37 165.425 41.575 165.93 41.575ZM174.501 43.15C174.141 43.15 173.786 43.095 173.436 42.985C173.091 42.875 172.776 42.7125 172.491 42.4975C172.206 42.2825 171.976 42.0175 171.801 41.7025C171.631 41.3875 171.546 41.0225 171.546 40.6075V35.245H173.736V40.33C173.736 40.69 173.854 40.985 174.089 41.215C174.324 41.445 174.669 41.56 175.124 41.56C175.554 41.56 175.894 41.45 176.144 41.23C176.399 41.005 176.526 40.6925 176.526 40.2925V35.245H178.694V43H177.044L176.789 41.4625C176.699 41.9175 176.529 42.2675 176.279 42.5125C176.034 42.7525 175.751 42.9175 175.431 43.0075C175.116 43.1025 174.806 43.15 174.501 43.15ZM183.939 43.15C183.219 43.15 182.577 42.99 182.012 42.67C181.447 42.35 181.002 41.8925 180.677 41.2975C180.357 40.6975 180.197 39.9825 180.197 39.1525C180.197 38.3525 180.352 37.6475 180.662 37.0375C180.972 36.4275 181.407 35.9525 181.967 35.6125C182.532 35.2675 183.189 35.095 183.939 35.095C184.589 35.095 185.149 35.2275 185.619 35.4925C186.094 35.7575 186.467 36.115 186.737 36.565C187.012 37.015 187.169 37.5175 187.209 38.0725H185.387C185.352 37.8675 185.279 37.665 185.169 37.465C185.059 37.26 184.904 37.0925 184.704 36.9625C184.504 36.8275 184.254 36.76 183.954 36.76C183.444 36.76 183.029 36.9575 182.709 37.3525C182.394 37.7425 182.237 38.3375 182.237 39.1375C182.237 39.8925 182.392 40.4925 182.702 40.9375C183.012 41.3775 183.444 41.5975 183.999 41.5975C184.294 41.5975 184.539 41.525 184.734 41.38C184.934 41.235 185.089 41.0625 185.199 40.8625C185.309 40.6575 185.379 40.4675 185.409 40.2925H187.187C187.152 40.8275 186.997 41.3125 186.722 41.7475C186.447 42.1775 186.072 42.52 185.597 42.775C185.127 43.025 184.574 43.15 183.939 43.15ZM191.864 43.0825C191.179 43.0825 190.649 42.995 190.274 42.82C189.904 42.645 189.646 42.4 189.501 42.085C189.361 41.77 189.291 41.405 189.291 40.99V36.7675H188.031V35.245H189.359L189.914 32.905H191.474V35.2375H193.199V36.7675H191.474L191.489 40.9C191.489 41.09 191.511 41.2325 191.556 41.3275C191.606 41.4175 191.681 41.4775 191.781 41.5075C191.886 41.5325 192.019 41.545 192.179 41.545H193.221V42.895C193.116 42.94 192.959 42.9825 192.749 43.0225C192.539 43.0625 192.244 43.0825 191.864 43.0825ZM194.781 43V35.245H196.874V43H194.781ZM194.759 34.135V32.1625H196.889V34.135H194.759ZM202.14 43.15C201.38 43.15 200.718 42.9875 200.153 42.6625C199.593 42.3375 199.158 41.8775 198.848 41.2825C198.543 40.6875 198.39 39.9825 198.39 39.1675C198.39 38.3525 198.543 37.64 198.848 37.03C199.158 36.42 199.593 35.945 200.153 35.605C200.718 35.265 201.383 35.095 202.148 35.095C202.913 35.095 203.575 35.2625 204.135 35.5975C204.695 35.9275 205.128 36.3975 205.433 37.0075C205.738 37.6175 205.89 38.3375 205.89 39.1675C205.89 39.9475 205.74 40.6375 205.44 41.2375C205.145 41.8325 204.718 42.3 204.158 42.64C203.603 42.98 202.93 43.15 202.14 43.15ZM202.148 41.5225C202.533 41.5225 202.843 41.41 203.078 41.185C203.313 40.96 203.483 40.665 203.588 40.3C203.693 39.93 203.745 39.5275 203.745 39.0925C203.745 38.6825 203.698 38.295 203.603 37.93C203.508 37.565 203.343 37.27 203.108 37.045C202.873 36.82 202.553 36.7075 202.148 36.7075C201.763 36.7075 201.45 36.815 201.21 37.03C200.975 37.24 200.803 37.5275 200.693 37.8925C200.583 38.2525 200.528 38.6525 200.528 39.0925C200.528 39.4975 200.578 39.8875 200.678 40.2625C200.778 40.6325 200.945 40.935 201.18 41.17C201.415 41.405 201.738 41.5225 202.148 41.5225ZM207.386 43V35.245H209.538V36.34C209.658 36.15 209.813 35.9675 210.003 35.7925C210.198 35.6125 210.443 35.465 210.738 35.35C211.033 35.235 211.383 35.1775 211.788 35.1775C212.263 35.1775 212.706 35.27 213.116 35.455C213.531 35.64 213.866 35.9325 214.121 36.3325C214.376 36.7275 214.503 37.245 214.503 37.885V43H212.313V38.155C212.313 37.735 212.188 37.42 211.938 37.21C211.688 37 211.383 36.895 211.023 36.895C210.783 36.895 210.551 36.9375 210.326 37.0225C210.106 37.1075 209.926 37.235 209.786 37.405C209.646 37.575 209.576 37.785 209.576 38.035V43H207.386Z" fill="white"/>
<path d="M28.215 43V32.155H32.205C32.995 32.155 33.7025 32.2925 34.3275 32.5675C34.9525 32.8375 35.445 33.2375 35.805 33.7675C36.17 34.2975 36.3525 34.945 36.3525 35.71C36.3525 36.43 36.1925 37.045 35.8725 37.555C35.5525 38.065 35.1025 38.455 34.5225 38.725C33.9475 38.995 33.27 39.13 32.49 39.13H30.42V43H28.215ZM30.3975 37.435H32.43C32.98 37.435 33.43 37.26 33.78 36.91C34.13 36.555 34.305 36.1175 34.305 35.5975C34.305 35.0575 34.12 34.63 33.75 34.315C33.38 33.995 32.93 33.835 32.4 33.835H30.3975V37.435ZM39.8201 43.15C39.3301 43.15 38.8851 43.0575 38.4851 42.8725C38.0901 42.6875 37.7776 42.42 37.5476 42.07C37.3176 41.715 37.2026 41.285 37.2026 40.78C37.2026 39.93 37.5201 39.285 38.1551 38.845C38.7901 38.4 39.7926 38.17 41.1626 38.155L42.1376 38.14V37.675C42.1376 37.32 42.0326 37.0475 41.8226 36.8575C41.6176 36.6625 41.2951 36.5675 40.8551 36.5725C40.5401 36.5775 40.2376 36.6525 39.9476 36.7975C39.6626 36.9425 39.4651 37.195 39.3551 37.555H37.5326C37.5626 36.995 37.7251 36.535 38.0201 36.175C38.3201 35.81 38.7226 35.54 39.2276 35.365C39.7326 35.185 40.3101 35.095 40.9601 35.095C41.7501 35.095 42.3851 35.195 42.8651 35.395C43.3451 35.59 43.6926 35.8725 43.9076 36.2425C44.1276 36.6075 44.2376 37.0425 44.2376 37.5475V43H42.4076L42.2276 41.665C41.9626 42.225 41.6301 42.6125 41.2301 42.8275C40.8351 43.0425 40.3651 43.15 39.8201 43.15ZM40.5626 41.71C40.7576 41.71 40.9476 41.675 41.1326 41.605C41.3226 41.53 41.4926 41.4325 41.6426 41.3125C41.7926 41.1875 41.9101 41.0475 41.9951 40.8925C42.0851 40.7375 42.1326 40.5775 42.1376 40.4125V39.265L41.3501 39.28C40.9851 39.285 40.6451 39.33 40.3301 39.415C40.0151 39.495 39.7601 39.6275 39.5651 39.8125C39.3751 39.9975 39.2801 40.2475 39.2801 40.5625C39.2801 40.9225 39.4026 41.205 39.6476 41.41C39.8976 41.61 40.2026 41.71 40.5626 41.71ZM46.0137 43V35.245H48.1212V37.0825C48.2462 36.6875 48.4212 36.3425 48.6462 36.0475C48.8762 35.7475 49.1537 35.515 49.4787 35.35C49.8037 35.18 50.1712 35.095 50.5812 35.095C50.6512 35.095 50.7162 35.1 50.7762 35.11C50.8412 35.115 50.8887 35.125 50.9187 35.14V37.225C50.8737 37.205 50.8187 37.1925 50.7537 37.1875C50.6937 37.1825 50.6387 37.1775 50.5887 37.1725C50.1587 37.1375 49.7912 37.15 49.4862 37.21C49.1812 37.27 48.9337 37.3725 48.7437 37.5175C48.5537 37.6625 48.4162 37.84 48.3312 38.05C48.2462 38.26 48.2037 38.495 48.2037 38.755V43H46.0137ZM55.4671 43.0825C54.7821 43.0825 54.2521 42.995 53.8771 42.82C53.5071 42.645 53.2496 42.4 53.1046 42.085C52.9646 41.77 52.8946 41.405 52.8946 40.99V36.7675H51.6346V35.245H52.9621L53.5171 32.905H55.0771V35.2375H56.8021V36.7675H55.0771L55.0921 40.9C55.0921 41.09 55.1146 41.2325 55.1596 41.3275C55.2096 41.4175 55.2846 41.4775 55.3846 41.5075C55.4896 41.5325 55.6221 41.545 55.7821 41.545H56.8246V42.895C56.7196 42.94 56.5621 42.9825 56.3521 43.0225C56.1421 43.0625 55.8471 43.0825 55.4671 43.0825ZM58.3623 43V35.245H60.5148V36.34C60.6348 36.15 60.7898 35.9675 60.9798 35.7925C61.1748 35.6125 61.4198 35.465 61.7148 35.35C62.0098 35.235 62.3598 35.1775 62.7648 35.1775C63.2398 35.1775 63.6823 35.27 64.0923 35.455C64.5073 35.64 64.8423 35.9325 65.0973 36.3325C65.3523 36.7275 65.4798 37.245 65.4798 37.885V43H63.2898V38.155C63.2898 37.735 63.1648 37.42 62.9148 37.21C62.6648 37 62.3598 36.895 61.9998 36.895C61.7598 36.895 61.5273 36.9375 61.3023 37.0225C61.0823 37.1075 60.9023 37.235 60.7623 37.405C60.6223 37.575 60.5523 37.785 60.5523 38.035V43H58.3623ZM70.8164 43.15C70.0464 43.15 69.3689 42.99 68.7839 42.67C68.2039 42.345 67.7514 41.8875 67.4264 41.2975C67.1014 40.7075 66.9389 40.0125 66.9389 39.2125C66.9389 38.4375 67.0864 37.74 67.3814 37.12C67.6814 36.495 68.1114 36.0025 68.6714 35.6425C69.2314 35.2775 69.9089 35.095 70.7039 35.095C71.4939 35.095 72.1564 35.2625 72.6914 35.5975C73.2264 35.9275 73.6314 36.39 73.9064 36.985C74.1814 37.575 74.3189 38.2575 74.3189 39.0325V39.625H69.1064C69.1064 40.02 69.1714 40.365 69.3014 40.66C69.4314 40.95 69.6189 41.175 69.8639 41.335C70.1139 41.49 70.4139 41.5675 70.7639 41.5675C71.1389 41.5675 71.4664 41.4875 71.7464 41.3275C72.0264 41.1675 72.2239 40.905 72.3389 40.54H74.3114C74.2214 41.09 74.0014 41.56 73.6514 41.95C73.3014 42.34 72.8764 42.6375 72.3764 42.8425C71.8764 43.0475 71.3564 43.15 70.8164 43.15ZM69.1064 38.32H72.2714C72.2714 38.01 72.2114 37.725 72.0914 37.465C71.9764 37.205 71.8014 37 71.5664 36.85C71.3364 36.7 71.0464 36.625 70.6964 36.625C70.3614 36.625 70.0739 36.7075 69.8339 36.8725C69.5989 37.0325 69.4164 37.2425 69.2864 37.5025C69.1614 37.7625 69.1014 38.035 69.1064 38.32ZM75.8965 43V35.245H78.004V37.0825C78.129 36.6875 78.304 36.3425 78.529 36.0475C78.759 35.7475 79.0365 35.515 79.3615 35.35C79.6865 35.18 80.054 35.095 80.464 35.095C80.534 35.095 80.599 35.1 80.659 35.11C80.724 35.115 80.7715 35.125 80.8015 35.14V37.225C80.7565 37.205 80.7015 37.1925 80.6365 37.1875C80.5765 37.1825 80.5215 37.1775 80.4715 37.1725C80.0415 37.1375 79.674 37.15 79.369 37.21C79.064 37.27 78.8165 37.3725 78.6265 37.5175C78.4365 37.6625 78.299 37.84 78.214 38.05C78.129 38.26 78.0865 38.495 78.0865 38.755V43H75.8965ZM85.7394 43V32.155H89.7294C90.5194 32.155 91.2269 32.2925 91.8519 32.5675C92.4769 32.8375 92.9694 33.2375 93.3294 33.7675C93.6944 34.2975 93.8769 34.945 93.8769 35.71C93.8769 36.43 93.7169 37.045 93.3969 37.555C93.0769 38.065 92.6269 38.455 92.0469 38.725C91.4719 38.995 90.7944 39.13 90.0144 39.13H87.9444V43H85.7394ZM87.9219 37.435H89.9544C90.5044 37.435 90.9544 37.26 91.3044 36.91C91.6544 36.555 91.8294 36.1175 91.8294 35.5975C91.8294 35.0575 91.6444 34.63 91.2744 34.315C90.9044 33.995 90.4544 33.835 89.9244 33.835H87.9219V37.435ZM98.3659 43.15C97.6059 43.15 96.9434 42.9875 96.3784 42.6625C95.8184 42.3375 95.3834 41.8775 95.0734 41.2825C94.7684 40.6875 94.6159 39.9825 94.6159 39.1675C94.6159 38.3525 94.7684 37.64 95.0734 37.03C95.3834 36.42 95.8184 35.945 96.3784 35.605C96.9434 35.265 97.6084 35.095 98.3734 35.095C99.1384 35.095 99.8009 35.2625 100.361 35.5975C100.921 35.9275 101.353 36.3975 101.658 37.0075C101.963 37.6175 102.116 38.3375 102.116 39.1675C102.116 39.9475 101.966 40.6375 101.666 41.2375C101.371 41.8325 100.943 42.3 100.383 42.64C99.8284 42.98 99.1559 43.15 98.3659 43.15ZM98.3734 41.5225C98.7584 41.5225 99.0684 41.41 99.3034 41.185C99.5384 40.96 99.7084 40.665 99.8134 40.3C99.9184 39.93 99.9709 39.5275 99.9709 39.0925C99.9709 38.6825 99.9234 38.295 99.8284 37.93C99.7334 37.565 99.5684 37.27 99.3334 37.045C99.0984 36.82 98.7784 36.7075 98.3734 36.7075C97.9884 36.7075 97.6759 36.815 97.4359 37.03C97.2009 37.24 97.0284 37.5275 96.9184 37.8925C96.8084 38.2525 96.7534 38.6525 96.7534 39.0925C96.7534 39.4975 96.8034 39.8875 96.9034 40.2625C97.0034 40.6325 97.1709 40.935 97.4059 41.17C97.6409 41.405 97.9634 41.5225 98.3734 41.5225ZM103.611 43V35.245H105.719V37.0825C105.844 36.6875 106.019 36.3425 106.244 36.0475C106.474 35.7475 106.751 35.515 107.076 35.35C107.401 35.18 107.769 35.095 108.179 35.095C108.249 35.095 108.314 35.1 108.374 35.11C108.439 35.115 108.486 35.125 108.516 35.14V37.225C108.471 37.205 108.416 37.1925 108.351 37.1875C108.291 37.1825 108.236 37.1775 108.186 37.1725C107.756 37.1375 107.389 37.15 107.084 37.21C106.779 37.27 106.531 37.3725 106.341 37.5175C106.151 37.6625 106.014 37.84 105.929 38.05C105.844 38.26 105.801 38.495 105.801 38.755V43H103.611ZM113.065 43.0825C112.38 43.0825 111.85 42.995 111.475 42.82C111.105 42.645 110.847 42.4 110.702 42.085C110.562 41.77 110.492 41.405 110.492 40.99V36.7675H109.232V35.245H110.56L111.115 32.905H112.675V35.2375H114.4V36.7675H112.675L112.69 40.9C112.69 41.09 112.712 41.2325 112.757 41.3275C112.807 41.4175 112.882 41.4775 112.982 41.5075C113.087 41.5325 113.22 41.545 113.38 41.545H114.422V42.895C114.317 42.94 114.16 42.9825 113.95 43.0225C113.74 43.0625 113.445 43.0825 113.065 43.0825ZM118.248 43.15C117.758 43.15 117.313 43.0575 116.913 42.8725C116.518 42.6875 116.205 42.42 115.975 42.07C115.745 41.715 115.63 41.285 115.63 40.78C115.63 39.93 115.948 39.285 116.583 38.845C117.218 38.4 118.22 38.17 119.59 38.155L120.565 38.14V37.675C120.565 37.32 120.46 37.0475 120.25 36.8575C120.045 36.6625 119.723 36.5675 119.283 36.5725C118.968 36.5775 118.665 36.6525 118.375 36.7975C118.09 36.9425 117.893 37.195 117.783 37.555H115.96C115.99 36.995 116.153 36.535 116.448 36.175C116.748 35.81 117.15 35.54 117.655 35.365C118.16 35.185 118.738 35.095 119.388 35.095C120.178 35.095 120.813 35.195 121.293 35.395C121.773 35.59 122.12 35.8725 122.335 36.2425C122.555 36.6075 122.665 37.0425 122.665 37.5475V43H120.835L120.655 41.665C120.39 42.225 120.058 42.6125 119.658 42.8275C119.263 43.0425 118.793 43.15 118.248 43.15ZM118.99 41.71C119.185 41.71 119.375 41.675 119.56 41.605C119.75 41.53 119.92 41.4325 120.07 41.3125C120.22 41.1875 120.338 41.0475 120.423 40.8925C120.513 40.7375 120.56 40.5775 120.565 40.4125V39.265L119.778 39.28C119.413 39.285 119.073 39.33 118.758 39.415C118.443 39.495 118.188 39.6275 117.993 39.8125C117.803 39.9975 117.708 40.2475 117.708 40.5625C117.708 40.9225 117.83 41.205 118.075 41.41C118.325 41.61 118.63 41.71 118.99 41.71ZM126.916 43.135C126.346 43.135 125.894 43.0675 125.559 42.9325C125.224 42.7975 124.976 42.62 124.816 42.4C124.656 42.175 124.554 41.9275 124.509 41.6575C124.464 41.3825 124.441 41.105 124.441 40.825V31.855H126.586V40.555C126.586 40.84 126.646 41.0725 126.766 41.2525C126.891 41.4275 127.124 41.535 127.464 41.575L127.831 41.5975V42.9475C127.681 42.9975 127.529 43.04 127.374 43.075C127.219 43.115 127.066 43.135 126.916 43.135Z" fill="#E21D3E"/>
<g clip-path="url(#clip1_26_213)">
<path fill-rule="evenodd" clip-rule="evenodd" d="M4.89648 4.40198H14.9347V17.3151H4.89648V4.40198Z" fill="white"/>
<path fill-rule="evenodd" clip-rule="evenodd" d="M31.7484 3.46537H28.1533V19.4517H38.5826V16.2966H31.7484V3.46537ZM49.7005 3.34829C44.8273 3.34829 41.1388 6.7961 41.1388 11.4556C41.1388 16.1151 44.8273 19.6098 49.7005 19.6098C54.5737 19.6098 58.2622 16.0976 58.2622 11.4556C58.2622 6.81366 54.5737 3.34829 49.7005 3.34829ZM49.7472 16.4546C48.4341 16.4453 47.1783 15.9136 46.2558 14.9763C45.3333 14.039 44.8195 12.7727 44.8273 11.4556C44.8219 10.805 44.9453 10.1597 45.1903 9.55727C45.4353 8.95481 45.7972 8.40712 46.2548 7.94595C46.7124 7.48477 47.2568 7.11928 47.8562 6.87065C48.4557 6.62203 49.0985 6.49522 49.7472 6.49756C51.0644 6.49756 52.3277 7.02239 53.2591 7.9566C54.1905 8.8908 54.7138 10.1579 54.7138 11.479C54.7138 12.8002 54.1905 14.0672 53.2591 15.0015C52.3277 15.9357 51.0644 16.4605 49.7472 16.4605V16.4546ZM70.3781 6.48C71.9996 6.51293 73.5535 7.13722 74.7494 8.2361L76.7745 5.65463C74.9731 4.14583 72.7017 3.3174 70.3547 3.31317C65.3881 3.31317 61.6588 6.82537 61.6588 11.4205C61.6588 16.0156 65.3648 19.6098 70.1738 19.6098C72.4828 19.5765 74.7312 18.8641 76.6403 17.561V10.6595H70.7399V13.4634H73.5354V15.5707C72.5749 16.0912 71.5096 16.3874 70.4189 16.4371C69.7425 16.4801 69.0645 16.384 68.4265 16.1546C67.7884 15.9252 67.2039 15.5674 66.7088 15.1032C66.2136 14.639 65.8183 14.0781 65.5472 13.4551C65.276 12.8321 65.1347 12.1601 65.1319 11.4803C65.1291 10.8005 65.2649 10.1273 65.531 9.50206C65.797 8.87682 66.1877 8.31274 66.679 7.84446C67.1703 7.37617 67.7519 7.01358 68.388 6.77894C69.0241 6.5443 69.7013 6.44257 70.3781 6.48ZM81.8287 3.46537H85.4296V19.4517H81.8287V3.46537ZM101.981 13.7385L94.2364 3.46537H90.9564V19.4517H94.3998V9.1961L102.115 19.4517H105.395V3.46537H101.981V13.7385ZM112.177 15.4127C111.904 15.4059 111.634 15.4556 111.381 15.5586C111.129 15.6616 110.901 15.8157 110.711 16.0114C110.521 16.207 110.373 16.4399 110.277 16.6954C110.18 16.951 110.138 17.2238 110.152 17.4966C110.152 18.0353 110.365 18.5519 110.745 18.9329C111.125 19.3138 111.64 19.5278 112.177 19.5278C112.714 19.5278 113.229 19.3138 113.609 18.9329C113.989 18.5519 114.202 18.0353 114.202 17.4966C114.218 17.2231 114.178 16.9492 114.082 16.6924C113.987 16.4357 113.839 16.2017 113.649 16.0055C113.458 15.8093 113.229 15.6552 112.975 15.5531C112.722 15.4511 112.45 15.4032 112.177 15.4127ZM125.688 6.48C127.309 6.51293 128.863 7.13722 130.059 8.2361L132.084 5.65463C130.283 4.14583 128.011 3.3174 125.664 3.31317C120.698 3.31317 116.968 6.82537 116.968 11.4205C116.968 16.0156 120.657 19.6098 125.477 19.6098C127.788 19.5776 130.039 18.8652 131.95 17.561V10.6595H126.061V13.4634H128.845V15.5707C127.884 16.0912 126.819 16.3874 125.728 16.4371C125.052 16.4801 124.374 16.384 123.736 16.1546C123.098 15.9252 122.513 15.5674 122.018 15.1032C121.523 14.639 121.128 14.0781 120.857 13.4551C120.585 12.8321 120.444 12.1601 120.441 11.4803C120.439 10.8005 120.574 10.1273 120.84 9.50206C121.106 8.87682 121.497 8.31274 121.988 7.84446C122.48 7.37617 123.061 7.01358 123.697 6.77894C124.334 6.5443 125.011 6.44257 125.688 6.48ZM144.498 3.34829C139.624 3.34829 135.936 6.7961 135.936 11.4556C135.936 16.1151 139.624 19.6098 144.498 19.6098C149.371 19.6098 153.059 16.0976 153.059 11.4556C153.059 6.81366 149.371 3.34829 144.498 3.34829ZM144.544 16.4546C143.231 16.4453 141.975 15.9136 141.053 14.9763C140.13 14.039 139.617 12.7727 139.624 11.4556C139.619 10.805 139.742 10.1597 139.987 9.55727C140.232 8.95481 140.594 8.40712 141.052 7.94595C141.509 7.48477 142.054 7.11928 142.653 6.87065C143.253 6.62203 143.896 6.49522 144.544 6.49756C145.861 6.49756 147.125 7.02239 148.056 7.9566C148.988 8.8908 149.511 10.1579 149.511 11.479C149.511 12.8002 148.988 14.0672 148.056 15.0015C147.125 15.9357 145.861 16.4605 144.544 16.4605V16.4546ZM167.317 3.46537L162.946 15.5239L158.598 3.46537H154.728L160.991 19.4517H164.702L171.029 3.46537H167.317Z" fill="#112E51"/>
<path fill-rule="evenodd" clip-rule="evenodd" d="M7.19582 15.2195L8.04207 10.3727C7.61892 10.0438 7.30911 9.59023 7.15615 9.07568C7.0032 8.56113 7.01478 8.01144 7.18928 7.50383C7.36377 6.99622 7.69241 6.55618 8.12904 6.24551C8.56566 5.93484 9.08835 5.76916 9.62367 5.77172V0.392212H3.08715C2.41539 0.392212 1.77113 0.65987 1.29612 1.1363C0.821111 1.61274 0.554253 2.25892 0.554253 2.9327V15.3893C0.552293 15.6243 0.604209 15.8566 0.705993 16.0683C1.25459 17.1805 3.41982 20.7512 9.61784 23.4966V15.4186C8.80631 15.4218 7.996 15.3553 7.19582 15.2195Z" fill="#E21D3E"/>
<path fill-rule="evenodd" clip-rule="evenodd" d="M16.1425 0.374641H9.61768V5.75415C10.1507 5.75139 10.6712 5.91541 11.1069 6.22339C11.5426 6.53136 11.8716 6.96794 12.0483 7.47233C12.2249 7.97672 12.2403 8.52381 12.0923 9.03738C11.9443 9.55095 11.6403 10.0055 11.2226 10.3376L12.0689 15.2078C11.2594 15.3492 10.4393 15.4197 9.61768 15.4185V23.4849C15.8099 20.7512 17.9809 17.1688 18.5295 16.0566C18.6313 15.8449 18.6832 15.6126 18.6813 15.3776V2.92684C18.6828 2.59174 18.6182 2.25964 18.4913 1.94968C18.3643 1.63972 18.1774 1.35801 17.9415 1.12079C17.7055 0.883564 17.4251 0.695508 17.1163 0.56745C16.8076 0.439393 16.4766 0.373865 16.1425 0.374641Z" fill="#B51E23"/>
</g>
</g>
<defs>
<clipPath id="clip0_26_213">
<rect width="220" height="51" fill="white"/>
</clipPath>
<clipPath id="clip1_26_213">
<rect width="171" height="24" fill="white"/>
</clipPath>
</defs>
</svg>
