<svg width="206" height="51" viewBox="0 0 206 51" fill="none" xmlns="http://www.w3.org/2000/svg">
<g clip-path="url(#clip0_26_200)">
<rect width="206" height="51" fill="white"/>
<rect x="133" y="25" width="73" height="26" rx="4" fill="#E21D3E"/>
<path d="M143.28 43.15C142.74 43.15 142.213 43.0825 141.698 42.9475C141.183 42.8125 140.713 42.61 140.288 42.34C139.863 42.07 139.513 41.7325 139.238 41.3275C138.968 40.9225 138.805 40.4475 138.75 39.9025H140.993C141.068 40.2325 141.21 40.51 141.42 40.735C141.635 40.96 141.91 41.1325 142.245 41.2525C142.585 41.3725 142.973 41.4325 143.408 41.4325C143.753 41.4325 144.08 41.3825 144.39 41.2825C144.7 41.1825 144.953 41.03 145.148 40.825C145.343 40.62 145.44 40.3625 145.44 40.0525C145.44 39.6825 145.305 39.405 145.035 39.22C144.765 39.03 144.398 38.88 143.933 38.77L141.9 38.3275C141.325 38.2075 140.823 38.0225 140.393 37.7725C139.968 37.5175 139.64 37.1875 139.41 36.7825C139.18 36.3725 139.065 35.875 139.065 35.29C139.065 34.615 139.25 34.0325 139.62 33.5425C139.995 33.0525 140.503 32.6775 141.143 32.4175C141.788 32.1525 142.51 32.02 143.31 32.02C144.215 32.02 144.978 32.1675 145.598 32.4625C146.223 32.7525 146.7 33.1475 147.03 33.6475C147.36 34.1425 147.528 34.695 147.533 35.305H145.343C145.303 34.93 145.188 34.63 144.998 34.405C144.808 34.175 144.563 34.01 144.263 33.91C143.968 33.805 143.63 33.7525 143.25 33.7525C142.595 33.7525 142.118 33.885 141.818 34.15C141.518 34.415 141.368 34.7225 141.368 35.0725C141.368 35.4025 141.48 35.67 141.705 35.875C141.935 36.075 142.303 36.2275 142.808 36.3325L144.69 36.7375C145.39 36.8725 145.958 37.0875 146.393 37.3825C146.828 37.6725 147.145 38.025 147.345 38.44C147.545 38.855 147.645 39.32 147.645 39.835C147.645 40.49 147.458 41.0675 147.083 41.5675C146.713 42.0625 146.2 42.45 145.545 42.73C144.89 43.01 144.135 43.15 143.28 43.15ZM151.523 43.15C151.033 43.15 150.588 43.0575 150.188 42.8725C149.793 42.6875 149.481 42.42 149.251 42.07C149.021 41.715 148.906 41.285 148.906 40.78C148.906 39.93 149.223 39.285 149.858 38.845C150.493 38.4 151.496 38.17 152.866 38.155L153.841 38.14V37.675C153.841 37.32 153.736 37.0475 153.526 36.8575C153.321 36.6625 152.998 36.5675 152.558 36.5725C152.243 36.5775 151.941 36.6525 151.651 36.7975C151.366 36.9425 151.168 37.195 151.058 37.555H149.236C149.266 36.995 149.428 36.535 149.723 36.175C150.023 35.81 150.426 35.54 150.931 35.365C151.436 35.185 152.013 35.095 152.663 35.095C153.453 35.095 154.088 35.195 154.568 35.395C155.048 35.59 155.396 35.8725 155.611 36.2425C155.831 36.6075 155.941 37.0425 155.941 37.5475V43H154.111L153.931 41.665C153.666 42.225 153.333 42.6125 152.933 42.8275C152.538 43.0425 152.068 43.15 151.523 43.15ZM152.266 41.71C152.461 41.71 152.651 41.675 152.836 41.605C153.026 41.53 153.196 41.4325 153.346 41.3125C153.496 41.1875 153.613 41.0475 153.698 40.8925C153.788 40.7375 153.836 40.5775 153.841 40.4125V39.265L153.053 39.28C152.688 39.285 152.348 39.33 152.033 39.415C151.718 39.495 151.463 39.6275 151.268 39.8125C151.078 39.9975 150.983 40.2475 150.983 40.5625C150.983 40.9225 151.106 41.205 151.351 41.41C151.601 41.61 151.906 41.71 152.266 41.71ZM157.717 43V35.245H159.869V36.34C159.989 36.15 160.144 35.9675 160.334 35.7925C160.529 35.6125 160.774 35.465 161.069 35.35C161.364 35.235 161.714 35.1775 162.119 35.1775C162.594 35.1775 163.037 35.27 163.447 35.455C163.862 35.64 164.197 35.9325 164.452 36.3325C164.707 36.7275 164.834 37.245 164.834 37.885V43H162.644V38.155C162.644 37.735 162.519 37.42 162.269 37.21C162.019 37 161.714 36.895 161.354 36.895C161.114 36.895 160.882 36.9375 160.657 37.0225C160.437 37.1075 160.257 37.235 160.117 37.405C159.977 37.575 159.907 37.785 159.907 38.035V43H157.717ZM169.541 43.15C168.501 43.15 167.691 42.7925 167.111 42.0775C166.531 41.3575 166.241 40.3575 166.241 39.0775C166.241 38.2675 166.358 37.565 166.593 36.97C166.828 36.375 167.176 35.915 167.636 35.59C168.096 35.26 168.658 35.095 169.323 35.095C169.603 35.095 169.863 35.1275 170.103 35.1925C170.348 35.2525 170.571 35.3375 170.771 35.4475C170.971 35.5575 171.146 35.685 171.296 35.83C171.446 35.975 171.568 36.13 171.663 36.295V31.855H173.861V43H172.271L172.023 41.41C171.948 41.625 171.848 41.835 171.723 42.04C171.603 42.245 171.446 42.4325 171.251 42.6025C171.056 42.7675 170.816 42.9 170.531 43C170.251 43.1 169.921 43.15 169.541 43.15ZM170.021 41.575C170.571 41.575 170.981 41.3825 171.251 40.9975C171.526 40.6125 171.663 39.9625 171.663 39.0475C171.658 38.5175 171.596 38.0775 171.476 37.7275C171.356 37.3775 171.176 37.1175 170.936 36.9475C170.701 36.7725 170.401 36.685 170.036 36.685C169.561 36.685 169.166 36.8675 168.851 37.2325C168.536 37.5925 168.378 38.1975 168.378 39.0475C168.378 39.9125 168.526 40.55 168.821 40.96C169.116 41.37 169.516 41.575 170.021 41.575ZM180.098 43.15C179.713 43.15 179.381 43.1 179.101 43C178.821 42.9 178.583 42.7675 178.388 42.6025C178.193 42.4325 178.033 42.245 177.908 42.04C177.783 41.835 177.686 41.625 177.616 41.41L177.368 43H175.778V31.855H177.976V36.295C178.071 36.13 178.193 35.975 178.343 35.83C178.493 35.685 178.668 35.5575 178.868 35.4475C179.068 35.3375 179.288 35.2525 179.528 35.1925C179.773 35.1275 180.033 35.095 180.308 35.095C181.273 35.095 182.028 35.4425 182.573 36.1375C183.123 36.8325 183.398 37.8125 183.398 39.0775C183.398 39.8975 183.273 40.6125 183.023 41.2225C182.773 41.8325 182.403 42.3075 181.913 42.6475C181.423 42.9825 180.818 43.15 180.098 43.15ZM179.618 41.575C180.088 41.575 180.478 41.3825 180.788 40.9975C181.103 40.6075 181.261 39.9575 181.261 39.0475C181.261 38.2425 181.111 37.6475 180.811 37.2625C180.516 36.8775 180.113 36.685 179.603 36.685C179.238 36.685 178.936 36.7725 178.696 36.9475C178.456 37.1175 178.276 37.3775 178.156 37.7275C178.041 38.0775 177.981 38.5175 177.976 39.0475C177.976 39.9625 178.111 40.6125 178.381 40.9975C178.656 41.3825 179.068 41.575 179.618 41.575ZM188.287 43.15C187.527 43.15 186.864 42.9875 186.299 42.6625C185.739 42.3375 185.304 41.8775 184.994 41.2825C184.689 40.6875 184.537 39.9825 184.537 39.1675C184.537 38.3525 184.689 37.64 184.994 37.03C185.304 36.42 185.739 35.945 186.299 35.605C186.864 35.265 187.529 35.095 188.294 35.095C189.059 35.095 189.722 35.2625 190.282 35.5975C190.842 35.9275 191.274 36.3975 191.579 37.0075C191.884 37.6175 192.037 38.3375 192.037 39.1675C192.037 39.9475 191.887 40.6375 191.587 41.2375C191.292 41.8325 190.864 42.3 190.304 42.64C189.749 42.98 189.077 43.15 188.287 43.15ZM188.294 41.5225C188.679 41.5225 188.989 41.41 189.224 41.185C189.459 40.96 189.629 40.665 189.734 40.3C189.839 39.93 189.892 39.5275 189.892 39.0925C189.892 38.6825 189.844 38.295 189.749 37.93C189.654 37.565 189.489 37.27 189.254 37.045C189.019 36.82 188.699 36.7075 188.294 36.7075C187.909 36.7075 187.597 36.815 187.357 37.03C187.122 37.24 186.949 37.5275 186.839 37.8925C186.729 38.2525 186.674 38.6525 186.674 39.0925C186.674 39.4975 186.724 39.8875 186.824 40.2625C186.924 40.6325 187.092 40.935 187.327 41.17C187.562 41.405 187.884 41.5225 188.294 41.5225ZM192.242 43L195.219 38.9575L192.497 35.245H194.792L196.404 37.42L198.009 35.245H200.297L197.552 38.9575L200.537 43H198.242L196.389 40.4725L194.537 43H192.242Z" fill="white"/>
<path d="M28.215 43V32.155H32.205C32.995 32.155 33.7025 32.2925 34.3275 32.5675C34.9525 32.8375 35.445 33.2375 35.805 33.7675C36.17 34.2975 36.3525 34.945 36.3525 35.71C36.3525 36.43 36.1925 37.045 35.8725 37.555C35.5525 38.065 35.1025 38.455 34.5225 38.725C33.9475 38.995 33.27 39.13 32.49 39.13H30.42V43H28.215ZM30.3975 37.435H32.43C32.98 37.435 33.43 37.26 33.78 36.91C34.13 36.555 34.305 36.1175 34.305 35.5975C34.305 35.0575 34.12 34.63 33.75 34.315C33.38 33.995 32.93 33.835 32.4 33.835H30.3975V37.435ZM39.8201 43.15C39.3301 43.15 38.8851 43.0575 38.4851 42.8725C38.0901 42.6875 37.7776 42.42 37.5476 42.07C37.3176 41.715 37.2026 41.285 37.2026 40.78C37.2026 39.93 37.5201 39.285 38.1551 38.845C38.7901 38.4 39.7926 38.17 41.1626 38.155L42.1376 38.14V37.675C42.1376 37.32 42.0326 37.0475 41.8226 36.8575C41.6176 36.6625 41.2951 36.5675 40.8551 36.5725C40.5401 36.5775 40.2376 36.6525 39.9476 36.7975C39.6626 36.9425 39.4651 37.195 39.3551 37.555H37.5326C37.5626 36.995 37.7251 36.535 38.0201 36.175C38.3201 35.81 38.7226 35.54 39.2276 35.365C39.7326 35.185 40.3101 35.095 40.9601 35.095C41.7501 35.095 42.3851 35.195 42.8651 35.395C43.3451 35.59 43.6926 35.8725 43.9076 36.2425C44.1276 36.6075 44.2376 37.0425 44.2376 37.5475V43H42.4076L42.2276 41.665C41.9626 42.225 41.6301 42.6125 41.2301 42.8275C40.8351 43.0425 40.3651 43.15 39.8201 43.15ZM40.5626 41.71C40.7576 41.71 40.9476 41.675 41.1326 41.605C41.3226 41.53 41.4926 41.4325 41.6426 41.3125C41.7926 41.1875 41.9101 41.0475 41.9951 40.8925C42.0851 40.7375 42.1326 40.5775 42.1376 40.4125V39.265L41.3501 39.28C40.9851 39.285 40.6451 39.33 40.3301 39.415C40.0151 39.495 39.7601 39.6275 39.5651 39.8125C39.3751 39.9975 39.2801 40.2475 39.2801 40.5625C39.2801 40.9225 39.4026 41.205 39.6476 41.41C39.8976 41.61 40.2026 41.71 40.5626 41.71ZM46.0137 43V35.245H48.1212V37.0825C48.2462 36.6875 48.4212 36.3425 48.6462 36.0475C48.8762 35.7475 49.1537 35.515 49.4787 35.35C49.8037 35.18 50.1712 35.095 50.5812 35.095C50.6512 35.095 50.7162 35.1 50.7762 35.11C50.8412 35.115 50.8887 35.125 50.9187 35.14V37.225C50.8737 37.205 50.8187 37.1925 50.7537 37.1875C50.6937 37.1825 50.6387 37.1775 50.5887 37.1725C50.1587 37.1375 49.7912 37.15 49.4862 37.21C49.1812 37.27 48.9337 37.3725 48.7437 37.5175C48.5537 37.6625 48.4162 37.84 48.3312 38.05C48.2462 38.26 48.2037 38.495 48.2037 38.755V43H46.0137ZM55.4671 43.0825C54.7821 43.0825 54.2521 42.995 53.8771 42.82C53.5071 42.645 53.2496 42.4 53.1046 42.085C52.9646 41.77 52.8946 41.405 52.8946 40.99V36.7675H51.6346V35.245H52.9621L53.5171 32.905H55.0771V35.2375H56.8021V36.7675H55.0771L55.0921 40.9C55.0921 41.09 55.1146 41.2325 55.1596 41.3275C55.2096 41.4175 55.2846 41.4775 55.3846 41.5075C55.4896 41.5325 55.6221 41.545 55.7821 41.545H56.8246V42.895C56.7196 42.94 56.5621 42.9825 56.3521 43.0225C56.1421 43.0625 55.8471 43.0825 55.4671 43.0825ZM58.3623 43V35.245H60.5148V36.34C60.6348 36.15 60.7898 35.9675 60.9798 35.7925C61.1748 35.6125 61.4198 35.465 61.7148 35.35C62.0098 35.235 62.3598 35.1775 62.7648 35.1775C63.2398 35.1775 63.6823 35.27 64.0923 35.455C64.5073 35.64 64.8423 35.9325 65.0973 36.3325C65.3523 36.7275 65.4798 37.245 65.4798 37.885V43H63.2898V38.155C63.2898 37.735 63.1648 37.42 62.9148 37.21C62.6648 37 62.3598 36.895 61.9998 36.895C61.7598 36.895 61.5273 36.9375 61.3023 37.0225C61.0823 37.1075 60.9023 37.235 60.7623 37.405C60.6223 37.575 60.5523 37.785 60.5523 38.035V43H58.3623ZM70.8164 43.15C70.0464 43.15 69.3689 42.99 68.7839 42.67C68.2039 42.345 67.7514 41.8875 67.4264 41.2975C67.1014 40.7075 66.9389 40.0125 66.9389 39.2125C66.9389 38.4375 67.0864 37.74 67.3814 37.12C67.6814 36.495 68.1114 36.0025 68.6714 35.6425C69.2314 35.2775 69.9089 35.095 70.7039 35.095C71.4939 35.095 72.1564 35.2625 72.6914 35.5975C73.2264 35.9275 73.6314 36.39 73.9064 36.985C74.1814 37.575 74.3189 38.2575 74.3189 39.0325V39.625H69.1064C69.1064 40.02 69.1714 40.365 69.3014 40.66C69.4314 40.95 69.6189 41.175 69.8639 41.335C70.1139 41.49 70.4139 41.5675 70.7639 41.5675C71.1389 41.5675 71.4664 41.4875 71.7464 41.3275C72.0264 41.1675 72.2239 40.905 72.3389 40.54H74.3114C74.2214 41.09 74.0014 41.56 73.6514 41.95C73.3014 42.34 72.8764 42.6375 72.3764 42.8425C71.8764 43.0475 71.3564 43.15 70.8164 43.15ZM69.1064 38.32H72.2714C72.2714 38.01 72.2114 37.725 72.0914 37.465C71.9764 37.205 71.8014 37 71.5664 36.85C71.3364 36.7 71.0464 36.625 70.6964 36.625C70.3614 36.625 70.0739 36.7075 69.8339 36.8725C69.5989 37.0325 69.4164 37.2425 69.2864 37.5025C69.1614 37.7625 69.1014 38.035 69.1064 38.32ZM75.8965 43V35.245H78.004V37.0825C78.129 36.6875 78.304 36.3425 78.529 36.0475C78.759 35.7475 79.0365 35.515 79.3615 35.35C79.6865 35.18 80.054 35.095 80.464 35.095C80.534 35.095 80.599 35.1 80.659 35.11C80.724 35.115 80.7715 35.125 80.8015 35.14V37.225C80.7565 37.205 80.7015 37.1925 80.6365 37.1875C80.5765 37.1825 80.5215 37.1775 80.4715 37.1725C80.0415 37.1375 79.674 37.15 79.369 37.21C79.064 37.27 78.8165 37.3725 78.6265 37.5175C78.4365 37.6625 78.299 37.84 78.214 38.05C78.129 38.26 78.0865 38.495 78.0865 38.755V43H75.8965ZM85.7394 43V32.155H89.7294C90.5194 32.155 91.2269 32.2925 91.8519 32.5675C92.4769 32.8375 92.9694 33.2375 93.3294 33.7675C93.6944 34.2975 93.8769 34.945 93.8769 35.71C93.8769 36.43 93.7169 37.045 93.3969 37.555C93.0769 38.065 92.6269 38.455 92.0469 38.725C91.4719 38.995 90.7944 39.13 90.0144 39.13H87.9444V43H85.7394ZM87.9219 37.435H89.9544C90.5044 37.435 90.9544 37.26 91.3044 36.91C91.6544 36.555 91.8294 36.1175 91.8294 35.5975C91.8294 35.0575 91.6444 34.63 91.2744 34.315C90.9044 33.995 90.4544 33.835 89.9244 33.835H87.9219V37.435ZM98.3659 43.15C97.6059 43.15 96.9434 42.9875 96.3784 42.6625C95.8184 42.3375 95.3834 41.8775 95.0734 41.2825C94.7684 40.6875 94.6159 39.9825 94.6159 39.1675C94.6159 38.3525 94.7684 37.64 95.0734 37.03C95.3834 36.42 95.8184 35.945 96.3784 35.605C96.9434 35.265 97.6084 35.095 98.3734 35.095C99.1384 35.095 99.8009 35.2625 100.361 35.5975C100.921 35.9275 101.353 36.3975 101.658 37.0075C101.963 37.6175 102.116 38.3375 102.116 39.1675C102.116 39.9475 101.966 40.6375 101.666 41.2375C101.371 41.8325 100.943 42.3 100.383 42.64C99.8284 42.98 99.1559 43.15 98.3659 43.15ZM98.3734 41.5225C98.7584 41.5225 99.0684 41.41 99.3034 41.185C99.5384 40.96 99.7084 40.665 99.8134 40.3C99.9184 39.93 99.9709 39.5275 99.9709 39.0925C99.9709 38.6825 99.9234 38.295 99.8284 37.93C99.7334 37.565 99.5684 37.27 99.3334 37.045C99.0984 36.82 98.7784 36.7075 98.3734 36.7075C97.9884 36.7075 97.6759 36.815 97.4359 37.03C97.2009 37.24 97.0284 37.5275 96.9184 37.8925C96.8084 38.2525 96.7534 38.6525 96.7534 39.0925C96.7534 39.4975 96.8034 39.8875 96.9034 40.2625C97.0034 40.6325 97.1709 40.935 97.4059 41.17C97.6409 41.405 97.9634 41.5225 98.3734 41.5225ZM103.611 43V35.245H105.719V37.0825C105.844 36.6875 106.019 36.3425 106.244 36.0475C106.474 35.7475 106.751 35.515 107.076 35.35C107.401 35.18 107.769 35.095 108.179 35.095C108.249 35.095 108.314 35.1 108.374 35.11C108.439 35.115 108.486 35.125 108.516 35.14V37.225C108.471 37.205 108.416 37.1925 108.351 37.1875C108.291 37.1825 108.236 37.1775 108.186 37.1725C107.756 37.1375 107.389 37.15 107.084 37.21C106.779 37.27 106.531 37.3725 106.341 37.5175C106.151 37.6625 106.014 37.84 105.929 38.05C105.844 38.26 105.801 38.495 105.801 38.755V43H103.611ZM113.065 43.0825C112.38 43.0825 111.85 42.995 111.475 42.82C111.105 42.645 110.847 42.4 110.702 42.085C110.562 41.77 110.492 41.405 110.492 40.99V36.7675H109.232V35.245H110.56L111.115 32.905H112.675V35.2375H114.4V36.7675H112.675L112.69 40.9C112.69 41.09 112.712 41.2325 112.757 41.3275C112.807 41.4175 112.882 41.4775 112.982 41.5075C113.087 41.5325 113.22 41.545 113.38 41.545H114.422V42.895C114.317 42.94 114.16 42.9825 113.95 43.0225C113.74 43.0625 113.445 43.0825 113.065 43.0825ZM118.248 43.15C117.758 43.15 117.313 43.0575 116.913 42.8725C116.518 42.6875 116.205 42.42 115.975 42.07C115.745 41.715 115.63 41.285 115.63 40.78C115.63 39.93 115.948 39.285 116.583 38.845C117.218 38.4 118.22 38.17 119.59 38.155L120.565 38.14V37.675C120.565 37.32 120.46 37.0475 120.25 36.8575C120.045 36.6625 119.723 36.5675 119.283 36.5725C118.968 36.5775 118.665 36.6525 118.375 36.7975C118.09 36.9425 117.893 37.195 117.783 37.555H115.96C115.99 36.995 116.153 36.535 116.448 36.175C116.748 35.81 117.15 35.54 117.655 35.365C118.16 35.185 118.738 35.095 119.388 35.095C120.178 35.095 120.813 35.195 121.293 35.395C121.773 35.59 122.12 35.8725 122.335 36.2425C122.555 36.6075 122.665 37.0425 122.665 37.5475V43H120.835L120.655 41.665C120.39 42.225 120.058 42.6125 119.658 42.8275C119.263 43.0425 118.793 43.15 118.248 43.15ZM118.99 41.71C119.185 41.71 119.375 41.675 119.56 41.605C119.75 41.53 119.92 41.4325 120.07 41.3125C120.22 41.1875 120.338 41.0475 120.423 40.8925C120.513 40.7375 120.56 40.5775 120.565 40.4125V39.265L119.778 39.28C119.413 39.285 119.073 39.33 118.758 39.415C118.443 39.495 118.188 39.6275 117.993 39.8125C117.803 39.9975 117.708 40.2475 117.708 40.5625C117.708 40.9225 117.83 41.205 118.075 41.41C118.325 41.61 118.63 41.71 118.99 41.71ZM126.916 43.135C126.346 43.135 125.894 43.0675 125.559 42.9325C125.224 42.7975 124.976 42.62 124.816 42.4C124.656 42.175 124.554 41.9275 124.509 41.6575C124.464 41.3825 124.441 41.105 124.441 40.825V31.855H126.586V40.555C126.586 40.84 126.646 41.0725 126.766 41.2525C126.891 41.4275 127.124 41.535 127.464 41.575L127.831 41.5975V42.9475C127.681 42.9975 127.529 43.04 127.374 43.075C127.219 43.115 127.066 43.135 126.916 43.135Z" fill="#E21D3E"/>
<g clip-path="url(#clip1_26_200)">
<path fill-rule="evenodd" clip-rule="evenodd" d="M4.89648 4.40198H14.9347V17.3151H4.89648V4.40198Z" fill="white"/>
<path fill-rule="evenodd" clip-rule="evenodd" d="M31.7484 3.46537H28.1533V19.4517H38.5826V16.2966H31.7484V3.46537ZM49.7005 3.34829C44.8273 3.34829 41.1388 6.7961 41.1388 11.4556C41.1388 16.1151 44.8273 19.6098 49.7005 19.6098C54.5737 19.6098 58.2622 16.0976 58.2622 11.4556C58.2622 6.81366 54.5737 3.34829 49.7005 3.34829ZM49.7472 16.4546C48.4341 16.4453 47.1783 15.9136 46.2558 14.9763C45.3333 14.039 44.8195 12.7727 44.8273 11.4556C44.8219 10.805 44.9453 10.1597 45.1903 9.55727C45.4353 8.95481 45.7972 8.40712 46.2548 7.94595C46.7124 7.48477 47.2568 7.11928 47.8562 6.87065C48.4557 6.62203 49.0985 6.49522 49.7472 6.49756C51.0644 6.49756 52.3277 7.02239 53.2591 7.9566C54.1905 8.8908 54.7138 10.1579 54.7138 11.479C54.7138 12.8002 54.1905 14.0672 53.2591 15.0015C52.3277 15.9357 51.0644 16.4605 49.7472 16.4605V16.4546ZM70.3781 6.48C71.9996 6.51293 73.5535 7.13722 74.7494 8.2361L76.7745 5.65463C74.9731 4.14583 72.7017 3.3174 70.3547 3.31317C65.3881 3.31317 61.6588 6.82537 61.6588 11.4205C61.6588 16.0156 65.3648 19.6098 70.1738 19.6098C72.4828 19.5765 74.7312 18.8641 76.6403 17.561V10.6595H70.7399V13.4634H73.5354V15.5707C72.5749 16.0912 71.5096 16.3874 70.4189 16.4371C69.7425 16.4801 69.0645 16.384 68.4265 16.1546C67.7884 15.9252 67.2039 15.5674 66.7088 15.1032C66.2136 14.639 65.8183 14.0781 65.5472 13.4551C65.276 12.8321 65.1347 12.1601 65.1319 11.4803C65.1291 10.8005 65.2649 10.1273 65.531 9.50206C65.797 8.87682 66.1877 8.31274 66.679 7.84446C67.1703 7.37617 67.7519 7.01358 68.388 6.77894C69.0241 6.5443 69.7013 6.44257 70.3781 6.48ZM81.8287 3.46537H85.4296V19.4517H81.8287V3.46537ZM101.981 13.7385L94.2364 3.46537H90.9564V19.4517H94.3998V9.1961L102.115 19.4517H105.395V3.46537H101.981V13.7385ZM112.177 15.4127C111.904 15.4059 111.634 15.4556 111.381 15.5586C111.129 15.6616 110.901 15.8157 110.711 16.0114C110.521 16.207 110.373 16.4399 110.277 16.6954C110.18 16.951 110.138 17.2238 110.152 17.4966C110.152 18.0353 110.365 18.5519 110.745 18.9329C111.125 19.3138 111.64 19.5278 112.177 19.5278C112.714 19.5278 113.229 19.3138 113.609 18.9329C113.989 18.5519 114.202 18.0353 114.202 17.4966C114.218 17.2231 114.178 16.9492 114.082 16.6924C113.987 16.4357 113.839 16.2017 113.649 16.0055C113.458 15.8093 113.229 15.6552 112.975 15.5531C112.722 15.4511 112.45 15.4032 112.177 15.4127ZM125.688 6.48C127.309 6.51293 128.863 7.13722 130.059 8.2361L132.084 5.65463C130.283 4.14583 128.011 3.3174 125.664 3.31317C120.698 3.31317 116.968 6.82537 116.968 11.4205C116.968 16.0156 120.657 19.6098 125.477 19.6098C127.788 19.5776 130.039 18.8652 131.95 17.561V10.6595H126.061V13.4634H128.845V15.5707C127.884 16.0912 126.819 16.3874 125.728 16.4371C125.052 16.4801 124.374 16.384 123.736 16.1546C123.098 15.9252 122.513 15.5674 122.018 15.1032C121.523 14.639 121.128 14.0781 120.857 13.4551C120.585 12.8321 120.444 12.1601 120.441 11.4803C120.439 10.8005 120.574 10.1273 120.84 9.50206C121.106 8.87682 121.497 8.31274 121.988 7.84446C122.48 7.37617 123.061 7.01358 123.697 6.77894C124.334 6.5443 125.011 6.44257 125.688 6.48ZM144.498 3.34829C139.624 3.34829 135.936 6.7961 135.936 11.4556C135.936 16.1151 139.624 19.6098 144.498 19.6098C149.371 19.6098 153.059 16.0976 153.059 11.4556C153.059 6.81366 149.371 3.34829 144.498 3.34829ZM144.544 16.4546C143.231 16.4453 141.975 15.9136 141.053 14.9763C140.13 14.039 139.617 12.7727 139.624 11.4556C139.619 10.805 139.742 10.1597 139.987 9.55727C140.232 8.95481 140.594 8.40712 141.052 7.94595C141.509 7.48477 142.054 7.11928 142.653 6.87065C143.253 6.62203 143.896 6.49522 144.544 6.49756C145.861 6.49756 147.125 7.02239 148.056 7.9566C148.988 8.8908 149.511 10.1579 149.511 11.479C149.511 12.8002 148.988 14.0672 148.056 15.0015C147.125 15.9357 145.861 16.4605 144.544 16.4605V16.4546ZM167.317 3.46537L162.946 15.5239L158.598 3.46537H154.728L160.991 19.4517H164.702L171.029 3.46537H167.317Z" fill="#112E51"/>
<path fill-rule="evenodd" clip-rule="evenodd" d="M7.19582 15.2195L8.04207 10.3727C7.61892 10.0438 7.30911 9.59023 7.15615 9.07568C7.0032 8.56113 7.01478 8.01144 7.18928 7.50383C7.36377 6.99622 7.69241 6.55618 8.12904 6.24551C8.56566 5.93484 9.08835 5.76916 9.62367 5.77172V0.392212H3.08715C2.41539 0.392212 1.77113 0.65987 1.29612 1.1363C0.821111 1.61274 0.554253 2.25892 0.554253 2.9327V15.3893C0.552293 15.6243 0.604209 15.8566 0.705993 16.0683C1.25459 17.1805 3.41982 20.7512 9.61784 23.4966V15.4186C8.80631 15.4218 7.996 15.3553 7.19582 15.2195Z" fill="#E21D3E"/>
<path fill-rule="evenodd" clip-rule="evenodd" d="M16.1425 0.374641H9.61768V5.75415C10.1507 5.75139 10.6712 5.91541 11.1069 6.22339C11.5426 6.53136 11.8716 6.96794 12.0483 7.47233C12.2249 7.97672 12.2403 8.52381 12.0923 9.03738C11.9443 9.55095 11.6403 10.0055 11.2226 10.3376L12.0689 15.2078C11.2594 15.3492 10.4393 15.4197 9.61768 15.4185V23.4849C15.8099 20.7512 17.9809 17.1688 18.5295 16.0566C18.6313 15.8449 18.6832 15.6126 18.6813 15.3776V2.92684C18.6828 2.59174 18.6182 2.25964 18.4913 1.94968C18.3643 1.63972 18.1774 1.35801 17.9415 1.12079C17.7055 0.883564 17.4251 0.695508 17.1163 0.56745C16.8076 0.439393 16.4766 0.373865 16.1425 0.374641Z" fill="#B51E23"/>
</g>
</g>
<defs>
<clipPath id="clip0_26_200">
<rect width="206" height="51" fill="white"/>
</clipPath>
<clipPath id="clip1_26_200">
<rect width="171" height="24" fill="white"/>
</clipPath>
</defs>
</svg>
